<?xml version="1.0" standalone="no"?><!DOCTYPE svg PUBLIC "-//W3C//DTD SVG 1.1//EN" "http://www.w3.org/Graphics/SVG/1.1/DTD/svg11.dtd"><svg t="1534744054727" class="icon" style="" viewBox="0 0 1024 1024" version="1.1" xmlns="http://www.w3.org/2000/svg" p-id="21149" xmlns:xlink="http://www.w3.org/1999/xlink" width="200" height="200"><defs><style type="text/css"></style></defs><path d="M192 256c-38.4 0-64 25.6-64 64v64h64V256zM896 384V320c0-38.4-25.6-64-64-64v128h64z" fill="#76BAFF" p-id="21150"></path><path d="M256 128c-38.4 0-64 25.6-64 64v64h64V128zM832 256V192c0-38.4-25.6-64-64-64v128h64z" fill="#B2D7FF" p-id="21151"></path><path d="M768 256h64v128h-64z" fill="#399CFF" p-id="21152"></path><path d="M768 256h64v128h-64z" fill="#5EADFF" p-id="21153"></path><path d="M192 256h64v128H192z" fill="#399CFF" p-id="21154"></path><path d="M192 256h64v128H192z" fill="#5EADFF" p-id="21155"></path><path d="M704 64H320c-38.4 0-64 25.6-64 64h512c0-38.4-25.6-64-64-64z" fill="#B2D7FF" p-id="21156"></path><path d="M256 128h512v128H256z" fill="#399CFF" p-id="21157"></path><path d="M256 128h512v128H256z" fill="#83C0FF" p-id="21158"></path><path d="M256 256h512v128H256z" fill="#399CFF" p-id="21159"></path><path d="M256 256h512v128H256z" fill="#399CFF" p-id="21160"></path><path d="M256 256h512v128H256z" fill="#50A7FF" p-id="21161"></path><path d="M896 384H128c-38.4 0-64 25.6-64 64v448c0 38.4 25.6 64 64 64h768c38.4 0 64-25.6 64-64V448c0-38.4-25.6-64-64-64z" fill="#399CFF" p-id="21162"></path></svg>