<?xml version="1.0" standalone="no"?><!DOCTYPE svg PUBLIC "-//W3C//DTD SVG 1.1//EN" "http://www.w3.org/Graphics/SVG/1.1/DTD/svg11.dtd"><svg t="1534741686412" class="icon" style="" viewBox="0 0 1024 1024" version="1.1" xmlns="http://www.w3.org/2000/svg" p-id="2059" xmlns:xlink="http://www.w3.org/1999/xlink" width="200" height="200"><defs><style type="text/css"></style></defs><path d="M76.8 230.4h870.4c43.52 0 76.8 33.28 76.8 76.8v460.8c0 43.52-33.28 76.8-76.8 76.8H76.8c-43.52 0-76.8-33.28-76.8-76.8V307.2c0-43.52 33.28-76.8 76.8-76.8z" fill="#2589FF" p-id="2060"></path><path d="M614.4 332.8h281.6c28.16 0 51.2 23.04 51.2 51.2v307.2c0 28.16-23.04 51.2-51.2 51.2H614.4c-28.16 0-51.2-23.04-51.2-51.2V384c0-28.16 23.04-51.2 51.2-51.2zM128 332.8h281.6c28.16 0 51.2 23.04 51.2 51.2v307.2c0 28.16-23.04 51.2-51.2 51.2H128c-28.16 0-51.2-23.04-51.2-51.2V384c0-28.16 23.04-51.2 51.2-51.2z m143.36 258.56v-89.6c0-10.24-2.56-20.48-5.12-30.72s-10.24-17.92-17.92-23.04-15.36-12.8-23.04-17.92-20.48-5.12-30.72-5.12-20.48 2.56-28.16 5.12-17.92 10.24-25.6 17.92-10.24 12.8-15.36 23.04-5.12 17.92-5.12 30.72v89.6c0 10.24 2.56 20.48 5.12 30.72s10.24 17.92 15.36 23.04c7.68 7.68 15.36 12.8 23.04 15.36s20.48 5.12 30.72 5.12 20.48-2.56 30.72-5.12 17.92-10.24 23.04-15.36c7.68-7.68 12.8-15.36 15.36-23.04s7.68-20.48 7.68-30.72z m-53.76-133.12v174.08c-2.56 2.56-7.68 2.56-10.24 5.12-5.12 0-7.68 2.56-12.8 2.56-2.56 0-7.68 0-12.8-2.56s-7.68-2.56-10.24-5.12v-174.08c2.56-2.56 7.68-2.56 12.8-5.12s7.68-2.56 12.8-2.56 7.68 0 12.8 2.56c2.56 2.56 5.12 2.56 7.68 5.12z m174.08 207.36v-240.64c-5.12 2.56-10.24 2.56-17.92 5.12s-10.24 2.56-17.92 5.12-12.8 2.56-20.48 5.12-10.24 2.56-15.36 5.12v28.16c2.56 0 5.12-2.56 10.24-2.56s7.68-2.56 10.24-2.56V665.6h51.2zM742.4 665.6v-240.64c-5.12 2.56-10.24 2.56-17.92 5.12s-12.8 2.56-17.92 5.12-12.8 2.56-20.48 5.12-10.24 2.56-15.36 5.12v28.16c2.56 0 5.12-2.56 10.24-2.56s7.68-2.56 10.24-2.56V665.6h51.2z m122.88 0v-240.64c-5.12 2.56-10.24 2.56-17.92 5.12s-12.8 2.56-20.48 5.12-12.8 2.56-20.48 5.12-10.24 5.12-12.8 5.12v28.16c2.56 0 5.12-2.56 10.24-2.56s7.68-2.56 10.24-2.56V665.6h51.2zM512 512c-15.36 0-25.6-10.24-25.6-25.6s10.24-25.6 25.6-25.6 25.6 10.24 25.6 25.6-10.24 25.6-25.6 25.6z m0 102.4c-15.36 0-25.6-10.24-25.6-25.6s10.24-25.6 25.6-25.6 25.6 10.24 25.6 25.6-10.24 25.6-25.6 25.6z" fill="#F0F7FF" p-id="2061"></path></svg>