<?xml version="1.0" standalone="no"?><!DOCTYPE svg PUBLIC "-//W3C//DTD SVG 1.1//EN" "http://www.w3.org/Graphics/SVG/1.1/DTD/svg11.dtd"><svg t="1537266352905" class="icon" style="" viewBox="0 0 1024 1024" version="1.1" xmlns="http://www.w3.org/2000/svg" p-id="6538" xmlns:xlink="http://www.w3.org/1999/xlink" width="200" height="200"><defs><style type="text/css"></style></defs><path d="M516.544 0.384C233.984-1.92 3.008 225.216 0.704 507.776c-2.304 282.56 224.832 513.472 507.392 515.84 282.56 2.304 513.472-224.832 515.84-507.392S799.104 2.752 516.544 0.384z m-8.064 974.208C252.992 972.48 47.552 763.648 49.664 508.16 51.84 252.736 260.608 47.296 516.096 49.408 771.584 51.52 977.024 260.352 974.912 515.84 972.8 771.264 763.968 976.704 508.48 974.592z" fill="#FFFFFF" p-id="6539"></path><path d="M429.824 755.328L712.32 529.472c10.112-8.128 10.24-23.488 0.256-31.744l-278.72-230.4c-13.248-11.008-33.344-1.664-33.472 15.616l-3.776 456.32c-0.128 17.152 19.776 26.816 33.216 16.064z" fill="#4477ED" p-id="6540"></path></svg>